<svg width="22" height="22" viewBox="0 0 22 22" fill="none" xmlns="http://www.w3.org/2000/svg">
<path d="M1.77498 0.304538C1.36893 -0.101513 0.710591 -0.101513 0.304539 0.304538C-0.101513 0.710589 -0.101513 1.36893 0.304539 1.77498L9.52958 11L0.304539 20.225C-0.101513 20.6311 -0.101513 21.2894 0.304539 21.6955C0.710591 22.1015 1.36893 22.1015 1.77498 21.6955L11 12.4704L20.225 21.6954C20.6311 22.1015 21.2894 22.1015 21.6955 21.6954C22.1015 21.2894 22.1015 20.631 21.6955 20.225L12.4705 11L21.6955 1.77503C22.1015 1.36897 22.1015 0.710635 21.6955 0.304584C21.2894 -0.101467 20.6311 -0.101468 20.225 0.304584L11 9.52956L1.77498 0.304538Z" fill="black"/>
</svg>
