<svg width="28" height="28" viewBox="0 0 28 28" fill="none" xmlns="http://www.w3.org/2000/svg">
<path fill-rule="evenodd" clip-rule="evenodd" d="M11.2737 0.25C5.18548 0.25 0.25 5.29049 0.25 11.5083C0.25 17.726 5.18548 22.7665 11.2737 22.7665C13.9167 22.7665 16.3425 21.8166 18.2415 20.2328L25.8237 27.4366C26.287 27.8768 27.0121 27.85 27.4431 27.3768C27.8741 26.9037 27.848 26.1632 27.3846 25.723L19.858 18.5721C21.3839 16.6405 22.2974 14.1833 22.2974 11.5083C22.2974 5.29049 17.362 0.25 11.2737 0.25ZM2.54167 11.5083C2.54167 6.58307 6.45113 2.59043 11.2737 2.59043C16.0963 2.59043 20.0057 6.58307 20.0057 11.5083C20.0057 16.4335 16.0963 20.4261 11.2737 20.4261C6.45113 20.4261 2.54167 16.4335 2.54167 11.5083Z" fill="black"/>
</svg>
