<svg width="22" height="22" viewBox="0 0 22 22" fill="none" xmlns="http://www.w3.org/2000/svg">
<path fill-rule="evenodd" clip-rule="evenodd" d="M9.09159 1.375C4.82984 1.375 1.375 4.90334 1.375 9.25578C1.375 13.6082 4.82984 17.1366 9.09159 17.1366C10.9417 17.1366 12.6397 16.4716 13.969 15.363L19.2766 20.4056C19.6009 20.7137 20.1084 20.695 20.4102 20.3638C20.7119 20.0326 20.6936 19.5142 20.3692 19.2061L15.1006 14.2005C16.1687 12.8483 16.8082 11.1283 16.8082 9.25578C16.8082 4.90335 13.3534 1.375 9.09159 1.375ZM2.97917 9.25578C2.97917 5.80815 5.71579 3.0133 9.09159 3.0133C12.4674 3.0133 15.204 5.80815 15.204 9.25578C15.204 12.7034 12.4674 15.4983 9.09159 15.4983C5.71579 15.4983 2.97917 12.7034 2.97917 9.25578Z" fill="black"/>
</svg>
